<svg width="32" height="32" viewBox="0 0 32 32" fill="none" xmlns="http://www.w3.org/2000/svg">
<path d="M16.71 12.29C16.6149 12.199 16.5028 12.1276 16.38 12.08C16.1365 11.98 15.8635 11.98 15.62 12.08C15.4973 12.1276 15.3851 12.199 15.29 12.29L12.29 15.29C12.1017 15.4783 11.9959 15.7337 11.9959 16C11.9959 16.2663 12.1017 16.5217 12.29 16.71C12.4783 16.8983 12.7337 17.0041 13 17.0041C13.2663 17.0041 13.5217 16.8983 13.71 16.71L15 15.41V19C15 19.2652 15.1054 19.5196 15.2929 19.7071C15.4804 19.8946 15.7348 20 16 20C16.2652 20 16.5196 19.8946 16.7071 19.7071C16.8946 19.5196 17 19.2652 17 19V15.41L18.29 16.71C18.383 16.8037 18.4936 16.8781 18.6154 16.9289C18.7373 16.9797 18.868 17.0058 19 17.0058C19.132 17.0058 19.2627 16.9797 19.3846 16.9289C19.5064 16.8781 19.617 16.8037 19.71 16.71C19.8037 16.617 19.8781 16.5064 19.9289 16.3846C19.9797 16.2627 20.0058 16.132 20.0058 16C20.0058 15.868 19.9797 15.7373 19.9289 15.6154C19.8781 15.4936 19.8037 15.383 19.71 15.29L16.71 12.29ZM16 6C14.0222 6 12.0888 6.58649 10.4443 7.6853C8.79981 8.78412 7.51809 10.3459 6.76121 12.1732C6.00433 14.0004 5.8063 16.0111 6.19215 17.9509C6.578 19.8907 7.53041 21.6725 8.92894 23.0711C10.3275 24.4696 12.1093 25.422 14.0491 25.8079C15.9889 26.1937 17.9996 25.9957 19.8268 25.2388C21.6541 24.4819 23.2159 23.2002 24.3147 21.5557C25.4135 19.9112 26 17.9778 26 16C26 14.6868 25.7413 13.3864 25.2388 12.1732C24.7363 10.9599 23.9997 9.85752 23.0711 8.92893C22.1425 8.00035 21.0401 7.26375 19.8268 6.7612C18.6136 6.25866 17.3132 6 16 6V6ZM16 24C14.4178 24 12.871 23.5308 11.5554 22.6518C10.2398 21.7727 9.21447 20.5233 8.60897 19.0615C8.00347 17.5997 7.84504 15.9911 8.15372 14.4393C8.4624 12.8874 9.22433 11.462 10.3432 10.3431C11.462 9.22433 12.8874 8.4624 14.4393 8.15372C15.9911 7.84504 17.5997 8.00346 19.0615 8.60896C20.5233 9.21447 21.7727 10.2398 22.6518 11.5554C23.5308 12.871 24 14.4177 24 16C24 18.1217 23.1572 20.1566 21.6569 21.6569C20.1566 23.1571 18.1217 24 16 24V24Z" fill="black"/>
</svg>
