<svg width="32" height="32" viewBox="0 0 32 32" fill="none" xmlns="http://www.w3.org/2000/svg">
<path fill-rule="evenodd" clip-rule="evenodd" d="M16 28C22.6274 28 28 22.6274 28 16C28 9.37258 22.6274 4 16 4C9.37258 4 4 9.37258 4 16C4 22.6274 9.37258 28 16 28ZM16 26.5C21.799 26.5 26.5 21.799 26.5 16C26.5 10.201 21.799 5.5 16 5.5C10.201 5.5 5.5 10.201 5.5 16C5.5 21.799 10.201 26.5 16 26.5Z" fill="#1A1A1A"/>
<path d="M25.5 6.25C25.5 6.11193 25.6119 6 25.75 6C25.8881 6 26 6.11193 26 6.25V26.75C26 26.8881 25.8881 27 25.75 27C25.6119 27 25.5 26.8881 25.5 26.75V6.25Z" fill="#4F4F4F"/>
<path d="M24 7.75C24 7.61193 24.1119 7.5 24.25 7.5C24.3881 7.5 24.5 7.61193 24.5 7.75V26.75C24.5 26.8881 24.3881 27 24.25 27C24.1119 27 24 26.8881 24 26.75V7.75Z" fill="#4F4F4F"/>
<path d="M22.5 9.25C22.5 9.11193 22.6119 9 22.75 9C22.8881 9 23 9.11193 23 9.25V26.75C23 26.8881 22.8881 27 22.75 27C22.6119 27 22.5 26.8881 22.5 26.75V9.25Z" fill="#4F4F4F"/>
<path d="M21 10.75C21 10.6119 21.1119 10.5 21.25 10.5C21.3881 10.5 21.5 10.6119 21.5 10.75V26.75C21.5 26.8881 21.3881 27 21.25 27C21.1119 27 21 26.8881 21 26.75V10.75Z" fill="#4F4F4F"/>
<path d="M19.5 12.25C19.5 12.1119 19.6119 12 19.75 12C19.8881 12 20 12.1119 20 12.25V26.75C20 26.8881 19.8881 27 19.75 27C19.6119 27 19.5 26.8881 19.5 26.75V12.25Z" fill="#4F4F4F"/>
<path d="M18 13.75C18 13.6119 18.1119 13.5 18.25 13.5C18.3881 13.5 18.5 13.6119 18.5 13.75V26.75C18.5 26.8881 18.3881 27 18.25 27C18.1119 27 18 26.8881 18 26.75V13.75Z" fill="#4F4F4F"/>
<path d="M16.5 15.25C16.5 15.1119 16.6119 15 16.75 15C16.8881 15 17 15.1119 17 15.25V26.75C17 26.8881 16.8881 27 16.75 27C16.6119 27 16.5 26.8881 16.5 26.75V15.25Z" fill="#4F4F4F"/>
<path d="M15 16.75C15 16.6119 15.1119 16.5 15.25 16.5C15.3881 16.5 15.5 16.6119 15.5 16.75V26.75C15.5 26.8881 15.3881 27 15.25 27C15.1119 27 15 26.8881 15 26.75V16.75Z" fill="#4F4F4F"/>
<path d="M13.5 18.25C13.5 18.1119 13.6119 18 13.75 18C13.8881 18 14 18.1119 14 18.25V26.75C14 26.8881 13.8881 27 13.75 27C13.6119 27 13.5 26.8881 13.5 26.75V18.25Z" fill="#4F4F4F"/>
<path d="M12 19.75C12 19.6119 12.1119 19.5 12.25 19.5C12.3881 19.5 12.5 19.6119 12.5 19.75V26.75C12.5 26.8881 12.3881 27 12.25 27C12.1119 27 12 26.8881 12 26.75V19.75Z" fill="#4F4F4F"/>
<path d="M10.5 21.25C10.5 21.1119 10.6119 21 10.75 21C10.8881 21 11 21.1119 11 21.25V26.75C11 26.8881 10.8881 27 10.75 27C10.6119 27 10.5 26.8881 10.5 26.75V21.25Z" fill="#4F4F4F"/>
<path d="M9 22.75C9 22.6119 9.11193 22.5 9.25 22.5C9.38807 22.5 9.5 22.6119 9.5 22.75V26.75C9.5 26.8881 9.38807 27 9.25 27C9.11193 27 9 26.8881 9 26.75V22.75Z" fill="#4F4F4F"/>
<path d="M7.5 24.25C7.5 24.1119 7.61193 24 7.75 24C7.88807 24 8 24.1119 8 24.25V26.75C8 26.8881 7.88807 27 7.75 27C7.61193 27 7.5 26.8881 7.5 26.75V24.25Z" fill="#4F4F4F"/>
<path fill-rule="evenodd" clip-rule="evenodd" d="M28 27.25C28 27.6642 27.6642 28 27.25 28L27.2483 28L4.75 28C4.33579 28 4 27.6642 4 27.25C4 27.1226 4.03177 27.0026 4.08782 26.8975C4.12375 26.7933 4.18332 26.6954 4.26654 26.6121L26.6121 4.26655C26.6954 4.18333 26.7933 4.12375 26.8975 4.08782C27.0026 4.03177 27.1226 4 27.25 4C27.6642 4 28 4.33579 28 4.75L28 27.25ZM26.5 6.5L6.5 26.5L26.5 26.5L26.5 6.5Z" fill="#4F4F4F"/>
</svg>
