<svg width="72" height="72" viewBox="0 0 72 72" fill="none" xmlns="http://www.w3.org/2000/svg">
<circle cx="36" cy="36" r="36" fill="#F2F2F2"/>
<path d="M34.75 33.4167H41.4166C42.153 33.4167 42.75 34.0136 42.75 34.75V41.4167C42.75 42.1531 42.153 42.75 41.4166 42.75H34.75C34.0136 42.75 33.4166 42.1531 33.4166 41.4167V34.75C33.4166 34.0136 34.0136 33.4167 34.75 33.4167Z" fill="#828282"/>
<path d="M33.4167 34.75C33.4167 34.0136 34.0136 33.4167 34.75 33.4167H38.75V30.75C38.75 30.0136 38.1531 29.4167 37.4167 29.4167H30.75C30.0136 29.4167 29.4167 30.0136 29.4167 30.75V37.4167C29.4167 38.1531 30.0136 38.75 30.75 38.75H33.4167V34.75ZM25.4167 49.4167C23.9439 49.4167 22.75 48.2228 22.75 46.75C22.75 45.2772 23.9439 44.0833 25.4167 44.0833C26.8894 44.0833 28.0833 45.2772 28.0833 46.75C28.0814 48.222 26.8886 49.4148 25.4167 49.4167ZM25.4167 28.0833C23.9439 28.0833 22.75 26.8894 22.75 25.4167C22.75 23.9439 23.9439 22.75 25.4167 22.75C26.8894 22.75 28.0833 23.9439 28.0833 25.4167C28.0814 26.8886 26.8886 28.0814 25.4167 28.0833ZM46.75 28.0833C45.2772 28.0833 44.0833 26.8894 44.0833 25.4167C44.0833 23.9439 45.2772 22.75 46.75 22.75C48.2228 22.75 49.4167 23.9439 49.4167 25.4167C49.4148 26.8886 48.222 28.0814 46.75 28.0833ZM46.75 49.4167C45.2772 49.4167 44.0833 48.2228 44.0833 46.75C44.0833 45.2772 45.2772 44.0833 46.75 44.0833C48.2228 44.0833 49.4167 45.2772 49.4167 46.75C49.4148 48.222 48.222 49.4148 46.75 49.4167Z" fill="#333333"/>
<path d="M44.4545 26.75C43.9597 25.93 43.9597 24.9034 44.4545 24.0833H27.7123C28.2071 24.9034 28.2071 25.93 27.7123 26.75H44.4545ZM46.75 44.0833C47.2196 44.086 47.6799 44.2141 48.0834 44.4544V27.7123C47.2633 28.207 46.2367 28.207 45.4167 27.7123V44.4544C45.8201 44.2141 46.2805 44.086 46.75 44.0833ZM25.4167 44.0833C25.8863 44.086 26.3466 44.2141 26.75 44.4544V27.7123C25.93 28.207 24.9034 28.207 24.0834 27.7123V44.4544C24.4868 44.2141 24.9471 44.086 25.4167 44.0833ZM44.4545 45.4167H27.7123C28.2071 46.2367 28.2071 47.2633 27.7123 48.0833H44.4545C43.9597 47.2633 43.9597 46.2367 44.4545 45.4167Z" fill="#BDBDBD"/>
</svg>
