<svg width="72" height="72" viewBox="0 0 72 72" fill="none" xmlns="http://www.w3.org/2000/svg">
<circle cx="36" cy="36" r="36" fill="#F2F2F2"/>
<path d="M50.2333 22.9424C50.1 22.5424 49.7 22.1424 49.3 22.0091C43.7 20.5424 37.9667 22.2758 34.1 26.8091L32.6333 28.5424L29.0333 27.7424C27.3 27.0758 25.4333 27.8758 24.6333 29.4758L21.7 34.6758C21.4333 35.0758 21.4333 35.4758 21.7 35.8758C21.8333 36.2758 22.2333 36.5424 22.6333 36.6758L26.7667 37.6091C26.3667 38.6758 26.2333 39.7424 25.9667 40.8091C25.9667 41.2091 26.1 41.6091 26.3667 41.8758L30.5 46.0091C30.7667 46.2758 31.0333 46.4091 31.4333 46.4091H31.5667C32.7667 46.2758 33.8333 46.1424 34.9 45.7424L35.7 49.7424C35.8333 50.1424 36.1 50.5424 36.5 50.6758C36.6333 50.8091 36.9 50.8091 37.0333 50.8091C37.3 50.8091 37.4333 50.8091 37.7 50.6758L42.9 47.7424C44.3667 46.9424 45.1667 45.0758 44.7667 43.3424L43.8333 39.6091L45.4333 38.1424C49.8333 34.4091 51.7 28.4091 50.2333 22.9424ZM29.8333 31.8758C29.0333 32.9424 28.2333 34.0091 27.7 35.0758L24.9 34.4091L26.9 30.8091C27.1667 30.2758 27.7 30.1424 28.3667 30.2758L30.6333 30.8091L29.8333 31.8758ZM41.4333 45.3424L37.8333 47.3424L37.3 44.6758C38.5 44.1424 39.5667 43.3424 40.5 42.5424L41.4333 41.6091L41.9667 43.8758C42.2333 44.5424 41.8333 45.2091 41.4333 45.3424ZM42.3667 31.8758C41.3 31.8758 40.3667 30.9424 40.3667 29.8758C40.3667 28.8091 41.3 27.8758 42.3667 27.8758C43.4333 27.8758 44.3667 28.8091 44.3667 29.8758C44.3667 30.9424 43.5667 31.8758 42.3667 31.8758Z" fill="#333333"/>
</svg>
