<?xml version="1.0" encoding="utf-8"?>
<!-- Generator: Adobe Illustrator 21.1.0, SVG Export Plug-In . SVG Version: 6.00 Build 0)  -->
<svg version="1.0" id="레이어_1" xmlns="http://www.w3.org/2000/svg" xmlns:xlink="http://www.w3.org/1999/xlink" x="0px"
	 y="0px" width="122px" height="34px" viewBox="0 0 122 34" style="enable-background:new 0 0 122 34;" xml:space="preserve">
<style type="text/css">
	.st0{fill:#F6A539;}
	.st1{fill:#FFFFFF;}
</style>
<g>
	<g>
		<path class="st0" d="M5.1,7.8C4.8,8.4,4.8,9,5,9.7c0.1,0.4,0.3,0.8,0.7,1.3l1.1,1.6l1-1.5L6.8,9.7L6.6,9.3C6.5,8.8,6.5,8.4,6.8,8
			C7.1,7.6,7.5,7.4,8,7.4c0.5,0,0.9,0.2,1.2,0.6c0.3,0.4,0.4,0.8,0.3,1.3L9.4,9.6l-8,12c-0.3,0.5-0.5,1-0.7,1.6
			c-0.3,1.1-0.3,2.3-0.1,3.4c0.2,1.1,0.7,2.2,1.4,3.1c0.7,0.9,1.6,1.6,2.7,2.1c1,0.5,2.2,0.8,3.3,0.8c1.1,0,2.3-0.3,3.3-0.8
			c1.1-0.5,1.9-1.2,2.6-2.1c0.7-0.9,1.2-2,1.4-3.1c0.2-1.1,0.2-2.3-0.1-3.4c-0.2-0.6-0.4-1.1-0.6-1.6L12,17.5L11,19l2.2,3.4
			c0.2,0.4,0.4,0.8,0.5,1.3c0.2,0.9,0.3,1.8,0.1,2.7c-0.2,0.9-0.5,1.7-1.1,2.4c-0.5,0.7-1.2,1.3-2,1.7C9.8,30.8,8.9,31,8,31
			c-0.9,0-1.8-0.2-2.6-0.6c-0.8-0.4-1.5-0.9-2-1.7c-0.6-0.7-0.9-1.5-1.1-2.4c-0.2-0.9-0.2-1.8,0.1-2.7c0.1-0.4,0.3-0.9,0.5-1.3
			l7.5-11.3c0.4-0.5,0.7-1,0.7-1.4C11.3,9,11.2,8.4,11,7.8c-0.2-0.6-0.6-1.1-1.2-1.5C9.3,5.9,8.7,5.7,8,5.7c-0.7,0-1.3,0.2-1.8,0.6
			C5.7,6.7,5.3,7.2,5.1,7.8"/>
		<g>
			<path class="st0" d="M13.2,10.2c0.2-0.8,0.2-1.6,0.1-2.4c-0.2-0.8-0.5-1.5-1-2.2c-0.5-0.7-1.1-1.2-1.9-1.6C9.6,3.7,8.8,3.5,8,3.5
				c-0.8,0-1.6,0.2-2.4,0.6C4.9,4.4,4.3,5,3.8,5.6C3.3,6.3,2.9,7,2.8,7.8c-0.2,0.8-0.1,1.6,0.1,2.4c0.1,0.4,0.2,0.8,0.4,1.1l2.1,3.2
				l1-1.5l-1.1-1.7c-0.4-0.5-0.7-1.1-0.8-1.6C4.2,9.1,4.3,8.3,4.6,7.6c0.3-0.7,0.7-1.3,1.3-1.7C6.5,5.4,7.2,5.2,8,5.2
				c0.8,0,1.5,0.2,2.1,0.7c0.6,0.5,1.1,1,1.4,1.7c0.3,0.7,0.3,1.5,0.1,2.2c-0.2,0.5-0.4,1-0.8,1.6L3.3,22.6
				c-0.2,0.4-0.4,0.8-0.4,1.1c-0.2,0.8-0.2,1.6-0.1,2.5c0.2,0.8,0.5,1.5,1,2.2c0.5,0.7,1.1,1.2,1.9,1.6c0.8,0.4,1.5,0.5,2.4,0.5
				c0.8,0,1.6-0.2,2.4-0.5c0.8-0.4,1.4-0.9,1.9-1.6c0.5-0.7,0.8-1.4,1-2.2c0.2-0.8,0.1-1.6-0.1-2.5c-0.1-0.4-0.3-0.8-0.5-1.1
				l-2.1-3.2l-1,1.5l1.1,1.7c0.4,0.5,0.6,1.1,0.8,1.6c0.2,0.8,0.2,1.5-0.1,2.2c-0.3,0.7-0.7,1.3-1.4,1.8c-0.6,0.5-1.3,0.7-2.1,0.7
				c-0.8,0-1.5-0.2-2.1-0.7c-0.6-0.5-1-1-1.3-1.8c-0.3-0.7-0.3-1.4-0.1-2.2c0.2-0.5,0.4-1.1,0.8-1.6l7.5-11.2
				C12.9,11,13.1,10.6,13.2,10.2"/>
		</g>
		<g>
			<path class="st0" d="M11.4,2.1C10.3,1.6,9.2,1.3,8,1.3c-1.1,0-2.3,0.3-3.3,0.8c-1,0.5-1.9,1.2-2.6,2.1c-0.7,0.9-1.2,2-1.4,3.1
				c-0.2,1.1-0.2,2.3,0.1,3.4c0.2,0.6,0.4,1.1,0.7,1.6l0.4,0.7l2.3,3.4l1-1.5l-2.2-3.4c-0.2-0.4-0.4-0.8-0.5-1.2
				C2.1,9.5,2.1,8.6,2.3,7.7C2.4,6.8,2.8,6,3.4,5.3c0.6-0.7,1.2-1.3,2-1.7C6.3,3.2,7.1,3,8,3c0.9,0,1.8,0.2,2.6,0.6
				c0.8,0.4,1.5,1,2,1.7c0.6,0.7,0.9,1.5,1.1,2.4c0.2,0.9,0.2,1.8-0.1,2.7c-0.1,0.4-0.3,0.9-0.5,1.2L5.7,22.9
				c-0.4,0.5-0.6,1-0.7,1.4c-0.2,0.6-0.2,1.3,0.1,1.9c0.2,0.6,0.6,1.1,1.1,1.5c0.5,0.4,1.1,0.6,1.8,0.6c0.7,0,1.3-0.2,1.8-0.6
				c0.5-0.4,0.9-0.9,1.2-1.5c0.2-0.6,0.3-1.2,0.1-1.9c-0.1-0.4-0.3-0.8-0.7-1.3l-1.1-1.6l-1,1.5l1,1.5l0.1,0.3
				c0.1,0.5,0,0.9-0.3,1.3c-0.3,0.4-0.7,0.6-1.2,0.6c-0.5,0-0.9-0.2-1.2-0.6c-0.3-0.4-0.4-0.8-0.3-1.3l0.2-0.5l7.9-11.9
				c0.3-0.5,0.5-1,0.6-1.6c0.3-1.1,0.3-2.3,0.1-3.4c-0.2-1.1-0.7-2.2-1.4-3.1C13.3,3.3,12.4,2.6,11.4,2.1"/>
		</g>
	</g>
	<g>
		<g>
			<g>
				<path class="st1" d="M41.8,15.1v-3.2c-0.1-0.9-0.3-1.6-0.9-1.9c-0.6-0.3-1.2-0.5-1.9-0.5c-0.7,0-1.3,0.2-1.9,0.5
					c-0.6,0.3-0.9,1-0.9,1.9v10.3c0,0.9,0.3,1.5,0.9,1.9c0.6,0.4,1.2,0.6,1.9,0.5c0.7,0,1.3-0.1,1.9-0.5c0.6-0.3,0.9-1,0.9-1.9v-3.3
					h-2.2v3.1c0,0.3-0.1,0.6-0.2,0.8c-0.1,0.1-0.3,0.1-0.5,0.1c-0.2,0-0.4,0-0.6-0.1c-0.1-0.2-0.1-0.4-0.1-0.8v-9.8
					c0-0.3,0.1-0.6,0.1-0.8c0.1-0.1,0.3-0.1,0.6-0.1c0.2,0,0.3,0.1,0.5,0.1c0.1,0.2,0.2,0.4,0.2,0.8v3H41.8"/>
			</g>
			<g>
				<path class="st1" d="M50.7,9.8h-2.9v14.5h2.2v-6.7c1-0.1,1.4,0.3,1.3,1.1v2.8c0,1,0.1,1.9,0.3,2.8h2.2l-0.3-6
					c-0.1-0.6-0.3-1.1-0.8-1.3c-0.4-0.2-0.8-0.4-1.3-0.5l-0.2-1c-0.1,0.2-0.4,0.3-0.7,0.3h-0.4v-4.3h0.6c0.5,0,0.8,0.2,0.8,0.7v2.7
					c0,0.3,0,0.5-0.2,0.7l0.2,1c0.9-0.1,1.4-0.4,1.8-0.8c0.3-0.4,0.4-0.9,0.4-1.4v-2.1c0-0.9-0.3-1.5-0.8-1.9
					C52.3,10,51.6,9.8,50.7,9.8"/>
			</g>
			<g>
				<path class="st1" d="M64.3,10c-0.6-0.3-1.2-0.5-1.9-0.5c-0.7,0-1.3,0.2-1.9,0.5c-0.6,0.3-0.9,1-0.9,1.9v10.3
					c0,0.9,0.3,1.5,0.9,1.9c0.5,0.4,1.2,0.6,1.9,0.5l0-1.7c-0.2,0-0.4,0-0.5-0.1c-0.1-0.2-0.2-0.4-0.2-0.8v-9.8
					c0-0.3,0.1-0.6,0.2-0.8c0.1-0.1,0.3-0.1,0.5-0.1c0.2,0,0.4,0.1,0.5,0.1c0.1,0.2,0.2,0.4,0.2,0.8v9.8c0,0.3-0.1,0.6-0.2,0.8
					c-0.1,0.1-0.2,0.1-0.5,0.1l0,1.7c0.7,0,1.3-0.1,1.9-0.5c0.6-0.3,0.9-1,0.9-1.9V11.9C65.2,11,64.9,10.3,64.3,10"/>
			</g>
			<g>
				<polyline class="st1" points="74.2,21.6 73,9.8 70.8,9.8 72.5,24.3 75.7,24.3 77.5,9.8 75.3,9.8 74.2,21.6 74.2,21.6 				"/>
			</g>
			<g>
				<polyline class="st1" points="28.8,9.8 25.6,9.8 23.9,24.3 26.1,24.3 27.3,12.5 27.3,12.5 28.4,24.3 30.5,24.3 28.8,9.8 				"/>
			</g>
			<g>
				<polyline class="st1" points="87.8,15.4 85.3,15.4 85.3,11.7 87.9,11.7 87.9,9.8 83.1,9.8 83.1,24.3 88,24.3 88,22.4 85.3,22.4 
					85.3,17.3 87.8,17.3 87.8,15.4 				"/>
			</g>
			<g>
				<path class="st1" d="M93.7,9.8v14.5h2.2v-6.7c0.9-0.1,1.4,0.3,1.3,1.1v2.8c0,1,0.1,1.9,0.2,2.8h2.2c-0.1-1-0.2-2-0.3-3l0-3
					c-0.1-0.6-0.3-1.1-0.8-1.3c-0.4-0.2-0.8-0.4-1.3-0.5l-0.2-1c-0.1,0.2-0.4,0.3-0.8,0.3h-0.4v-4.3h0.5c0.5,0,0.8,0.2,0.8,0.7v2.7
					L97,15.5l0.2,1c0.9-0.1,1.4-0.4,1.7-0.8c0.3-0.4,0.4-0.9,0.4-1.4v-2.1c0-0.9-0.2-1.5-0.7-1.9c-0.5-0.3-1.2-0.5-2.1-0.5H93.7"/>
			</g>
			<g>
				<path class="st1" d="M111,15v-3.1c0-0.9-0.3-1.5-0.9-1.9c-0.6-0.3-1.2-0.5-2-0.5c-0.7,0-1.3,0.2-1.9,0.5c-0.6,0.4-0.9,1-0.9,1.9
					V14c0,0.8,0.3,1.5,0.9,2.2l1.7,2.1c0.6,0.7,0.9,1.4,0.9,2.1v1.5c0,0.3,0,0.6-0.2,0.8l-0.4,0.1c-0.2,0-0.4,0-0.5-0.1
					c-0.1-0.2-0.2-0.4-0.2-0.8v-3.2h-2.2v3.4c0,0.9,0.3,1.5,0.9,1.9c0.6,0.4,1.2,0.6,1.9,0.5c0.7,0,1.4-0.1,2-0.5
					c0.6-0.3,0.9-1,0.9-1.9v-2.6c0-0.5-0.3-1.1-0.9-1.9l-1.7-2.2c-0.6-0.7-0.9-1.2-0.9-1.6v-1.8c0-0.3,0-0.6,0.2-0.8
					c0.1-0.1,0.3-0.1,0.5-0.1c0.2,0,0.4,0.1,0.4,0.1c0.1,0.2,0.2,0.4,0.2,0.8V15H111"/>
			</g>
			<g>
				<polyline class="st1" points="121.8,15.4 119.3,15.4 119.3,11.7 122,11.7 122,9.8 117.1,9.8 117.1,24.3 122,24.3 122,22.4 
					119.3,22.4 119.3,17.3 121.8,17.3 121.8,15.4 				"/>
			</g>
		</g>
	</g>
</g>
</svg>
